<svg xmlns="http://www.w3.org/2000/svg" xmlns:xlink="http://www.w3.org/1999/xlink" width="1280" zoomAndPan="magnify" viewBox="0 0 960 599.999999" height="800" preserveAspectRatio="xMidYMid meet" version="1.2"><defs><clipPath id="cc889c2265"><path d="M 409.476562 238.710938 L 550.476562 238.710938 L 550.476562 360.960938 L 409.476562 360.960938 Z M 409.476562 238.710938 "/></clipPath></defs><g id="36fab371f7"><g clip-rule="nonzero" clip-path="url(#cc889c2265)"><path style=" stroke:none;fill-rule:nonzero;fill:#194d62;fill-opacity:1;" d="M 549.945312 242.386719 C 549.96875 242.375 549.988281 242.359375 550.011719 242.34375 L 481.476562 359.90625 C 481.089844 360.574219 480.378906 360.96875 479.625 360.96875 C 479.488281 360.96875 479.351562 360.957031 479.214844 360.929688 C 478.320312 360.757812 477.632812 360.039062 477.5 359.136719 L 467.425781 290.726562 Z M 411.910156 238.710938 C 411.003906 238.710938 410.191406 239.28125 409.886719 240.140625 C 409.585938 240.996094 409.855469 241.953125 410.5625 242.523438 L 465.445312 286.910156 L 547.730469 238.710938 Z M 411.910156 238.710938 "/></g></g></svg>